<svg width="20" height="20" viewBox="0 0 20 20" fill="none" xmlns="http://www.w3.org/2000/svg">
<g clip-path="url(#clip0)">
<path d="M18.8949 0.000976562H1.10383C0.494616 0.000976562 0 0.494613 0 1.10482V18.8961C0 19.5064 0.494616 20.0006 1.10383 20.0006H10.682V12.2556H8.07587V9.23681H10.682V7.01067C10.682 4.42789 12.259 3.02075 14.5635 3.02075C15.6683 3.02075 16.6157 3.10341 16.892 3.1393V5.83899L15.2936 5.83965C14.0406 5.83965 13.7989 6.43537 13.7989 7.30903V9.23582H16.7883L16.3974 12.2543H13.7985V19.9997H18.8945C19.5044 19.9997 19.9993 19.5047 19.9993 18.8961V1.10417C19.999 0.494613 19.5047 0.000976562 18.8949 0.000976562Z" fill="white"/>
</g>
<defs>
<clipPath id="clip0">
<rect width="20" height="20" fill="white"/>
</clipPath>
</defs>
</svg>
